<?xml version="1.0" encoding="UTF-8"?>
<svg version="1.1" xmlns="http://www.w3.org/2000/svg" width="32" height="32">
<path d="M0 0 C4.10805919 2.9717875 5.95629536 6.42599439 8 11 C8.4125 11.680625 8.825 12.36125 9.25 13.0625 C10 15 10 15 9 20 C8.67 23.96 8.34 27.92 8 32 C-1.9 32 -11.8 32 -22 32 C-21.67 29.69 -21.34 27.38 -21 25 C-21.33 24.67 -21.66 24.34 -22 24 C-22.04063832 22.33382885 -22.042721 20.66611905 -22 19 C-21.01 19 -20.02 19 -19 19 C-18.89042969 18.19175781 -18.78085937 17.38351563 -18.66796875 16.55078125 C-18.50941406 15.48214844 -18.35085937 14.41351563 -18.1875 13.3125 C-18.03667969 12.25675781 -17.88585937 11.20101563 -17.73046875 10.11328125 C-16.78533119 6.08507466 -15.6090667 3.10058824 -12.12109375 0.71484375 C-8.10419593 -0.63891739 -4.16701871 -0.65617015 0 0 Z " fill="#40656A" transform="translate(22,0)"/>
<path d="M0 0 C4.10805919 2.9717875 5.95629536 6.42599439 8 11 C8.4125 11.680625 8.825 12.36125 9.25 13.0625 C10.27977736 15.72275819 9.8286274 17.30696095 9 20 C8.34 20.99 7.68 21.98 7 23 C7 21.02 7 19.04 7 17 C6.18015625 17.15984375 5.3603125 17.3196875 4.515625 17.484375 C0.56097492 18.06439034 -3.25998217 18.2207691 -7.25 18.25 C-7.96929687 18.270625 -8.68859375 18.29125 -9.4296875 18.3125 C-11.515625 18.328125 -11.515625 18.328125 -15 18 C-17.47361688 14.28957469 -17.54607278 11.30137325 -17 7 C-13.75521377 -0.46300832 -7.46928045 -1.17616916 0 0 Z " fill="#010203" transform="translate(22,0)"/>
<path d="M0 0 C1 1 1 1 1 10 C-5.27 10 -11.54 10 -18 10 C-16.75 3.75 -16.75 3.75 -14 1 C-9.66199335 -0.53106117 -4.56344158 -0.32057234 0 0 Z " fill="#F7F7F7" transform="translate(29,22)"/>
<path d="M0 0 C2.64 0 5.28 0 8 0 C6.68 2.97 5.36 5.94 4 9 C0.37 9 -3.26 9 -7 9 C-7 8.34 -7 7.68 -7 7 C-5.35 6.67 -3.7 6.34 -2 6 C-1.34 4.02 -0.68 2.04 0 0 Z " fill="#070C0F" transform="translate(7,23)"/>
<path d="M0 0 C0 1.65 0 3.3 0 5 C-6.435 5.495 -6.435 5.495 -13 6 C-13 4.35 -13 2.7 -13 1 C-8.61414671 0.29826347 -4.44209357 -0.10834375 0 0 Z " fill="#808D52" transform="translate(29,17)"/>
<path d="M0 0 C1.98 0 3.96 0 6 0 C6.68693763 3.02252556 7.19215562 5.28902419 6.375 8.3125 C4.49642216 10.61802735 2.88544805 10.69626863 0 11 C0.185625 10.195625 0.37125 9.39125 0.5625 8.5625 C0.706875 7.716875 0.85125 6.87125 1 6 C0.67 5.67 0.34 5.34 0 5 C-0.04063832 3.33382885 -0.042721 1.66611905 0 0 Z " fill="#828E49" transform="translate(0,19)"/>
<path d="M0 0 C1.98 0 3.96 0 6 0 C6 1.65 6 3.3 6 5 C4.02 5 2.04 5 0 5 C0 3.35 0 1.7 0 0 Z " fill="#9A993B" transform="translate(23,17)"/>
<path d="M0 0 C1.67542976 0.28604898 3.34385343 0.61781233 5 1 C4.67 2.32 4.34 3.64 4 5 C2.68 5.33 1.36 5.66 0 6 C-0.38218767 4.34385343 -0.71395102 2.67542976 -1 1 C-0.67 0.67 -0.34 0.34 0 0 Z " fill="#C6C6C6" transform="translate(14,7)"/>
</svg>
